<?xml version="1.0" encoding="UTF-8" standalone="no"?>
<!DOCTYPE svg PUBLIC "-//W3C//DTD SVG 1.1//EN"
 "http://www.w3.org/Graphics/SVG/1.1/DTD/svg11.dtd">
<!-- Generated by graphviz version 6.0.2 (20221011.1828)
 -->
<!-- Title: G Pages: 1 -->
<svg width="526pt" height="559pt"
 viewBox="0.00 0.00 525.50 559.00" xmlns="http://www.w3.org/2000/svg" xmlns:xlink="http://www.w3.org/1999/xlink">
<g id="graph0" class="graph" transform="scale(1 1) rotate(0) translate(4 555)">
<title>G</title>
<polygon fill="white" stroke="none" points="-4,4 -4,-555 521.5,-555 521.5,4 -4,4"/>
<!-- ideas -->
<g id="node1" class="node">
<title>ideas</title>
<polygon fill="none" stroke="black" points="333,-551 283,-551 279,-547 279,-515 329,-515 333,-519 333,-551"/>
<polyline fill="none" stroke="black" points="329,-547 279,-547"/>
<polyline fill="none" stroke="black" points="329,-547 329,-515"/>
<polyline fill="none" stroke="black" points="329,-547 333,-551"/>
<text text-anchor="middle" x="306" y="-529.3" font-family="Times,serif" font-size="14.00">ideas</text>
</g>
<!-- developer -->
<g id="node2" class="node">
<title>developer</title>
<polygon fill="none" stroke="black" points="341,-479 275,-479 271,-475 271,-443 337,-443 341,-447 341,-479"/>
<polyline fill="none" stroke="black" points="337,-475 271,-475"/>
<polyline fill="none" stroke="black" points="337,-475 337,-443"/>
<polyline fill="none" stroke="black" points="337,-475 341,-479"/>
<text text-anchor="middle" x="306" y="-457.3" font-family="Times,serif" font-size="14.00">developer</text>
</g>
<!-- ideas&#45;&gt;developer -->
<g id="edge1" class="edge">
<title>ideas&#45;&gt;developer</title>
<path fill="none" stroke="black" d="M306,-514.7C306,-506.98 306,-497.71 306,-489.11"/>
<polygon fill="black" stroke="black" points="309.5,-489.1 306,-479.1 302.5,-489.1 309.5,-489.1"/>
</g>
<!-- code -->
<g id="node3" class="node">
<title>code</title>
<polygon fill="none" stroke="black" points="333,-407 279,-407 279,-371 333,-371 333,-407"/>
<text text-anchor="middle" x="306" y="-385.3" font-family="Times,serif" font-size="14.00">code</text>
</g>
<!-- developer&#45;&gt;code -->
<g id="edge2" class="edge">
<title>developer&#45;&gt;code</title>
<path fill="none" stroke="black" d="M300.08,-442.7C299.29,-434.98 299.06,-425.71 299.4,-417.11"/>
<polygon fill="black" stroke="black" points="302.9,-417.32 300.1,-407.1 295.92,-416.84 302.9,-417.32"/>
</g>
<!-- graphviz_diagram -->
<g id="node4" class="node">
<title>graphviz_diagram</title>
<polygon fill="none" stroke="black" points="467,-407 351,-407 351,-371 467,-371 467,-407"/>
<text text-anchor="middle" x="409" y="-385.3" font-family="Times,serif" font-size="14.00">graphviz_diagram</text>
</g>
<!-- developer&#45;&gt;graphviz_diagram -->
<g id="edge3" class="edge">
<title>developer&#45;&gt;graphviz_diagram</title>
<path fill="none" stroke="black" d="M331.2,-442.88C344.41,-433.89 360.79,-422.76 375.11,-413.03"/>
<polygon fill="black" stroke="black" points="377.4,-415.71 383.71,-407.19 373.47,-409.92 377.4,-415.71"/>
</g>
<!-- code&#45;&gt;developer -->
<g id="edge4" class="edge">
<title>code&#45;&gt;developer</title>
<path fill="none" stroke="black" d="M311.9,-407.1C312.7,-414.79 312.94,-424.05 312.6,-432.67"/>
<polygon fill="black" stroke="black" points="309.11,-432.48 311.92,-442.7 316.09,-432.96 309.11,-432.48"/>
</g>
<!-- get_nodes -->
<g id="node5" class="node">
<title>get_nodes</title>
<ellipse fill="none" stroke="black" cx="372" cy="-317" rx="46.29" ry="18"/>
<text text-anchor="middle" x="372" y="-313.3" font-family="Times,serif" font-size="14.00">get_nodes</text>
</g>
<!-- graphviz_diagram&#45;&gt;get_nodes -->
<g id="edge5" class="edge">
<title>graphviz_diagram&#45;&gt;get_nodes</title>
<path fill="none" stroke="black" d="M399.85,-370.7C395.6,-362.64 390.44,-352.89 385.73,-343.98"/>
<polygon fill="black" stroke="black" points="388.81,-342.31 381.04,-335.1 382.62,-345.58 388.81,-342.31"/>
</g>
<!-- nodes -->
<g id="node6" class="node">
<title>nodes</title>
<polygon fill="none" stroke="black" points="341,-238.5 341,-259.5 404,-259.5 404,-238.5 341,-238.5"/>
<text text-anchor="start" x="352.5" y="-246.3" font-family="Times,serif" font-weight="bold" font-size="14.00">Node[]</text>
<polygon fill="none" stroke="black" points="341,-215.5 341,-236.5 404,-236.5 404,-215.5 341,-215.5"/>
<text text-anchor="start" x="366.5" y="-222.3" font-family="Times,serif" font-size="14.00">Id</text>
<polygon fill="none" stroke="black" points="341,-192.5 341,-213.5 404,-213.5 404,-192.5 341,-192.5"/>
<text text-anchor="start" x="355.5" y="-199.3" font-family="Times,serif" font-size="14.00">URL?</text>
<polygon fill="none" stroke="black" points="341,-169.5 341,-190.5 404,-190.5 404,-169.5 341,-169.5"/>
<text text-anchor="start" x="345" y="-176.3" font-family="Times,serif" font-size="14.00">Pathspec?</text>
<polygon fill="none" stroke="black" points="341,-146.5 341,-167.5 404,-167.5 404,-146.5 341,-146.5"/>
<text text-anchor="start" x="344" y="-153.3" font-family="Times,serif" font-size="14.00">Expected?</text>
<polygon fill="none" stroke="black" points="337.5,-144 337.5,-263 406.5,-263 406.5,-144 337.5,-144"/>
</g>
<!-- get_nodes&#45;&gt;nodes -->
<g id="edge6" class="edge">
<title>get_nodes&#45;&gt;nodes</title>
<path fill="none" stroke="black" d="M372,-298.58C372,-291.47 372,-282.75 372,-273.52"/>
<polygon fill="black" stroke="black" points="375.5,-273.35 372,-263.35 368.5,-273.35 375.5,-273.35"/>
</g>
<!-- validate -->
<g id="node7" class="node">
<title>validate</title>
<ellipse fill="none" stroke="black" cx="208" cy="-90" rx="38.19" ry="18"/>
<text text-anchor="middle" x="208" y="-86.3" font-family="Times,serif" font-size="14.00">validate</text>
</g>
<!-- nodes&#45;&gt;validate -->
<g id="edge7" class="edge">
<title>nodes&#45;&gt;validate</title>
<path fill="none" stroke="black" d="M337.26,-151.47C334.61,-148.8 331.85,-146.28 329,-144 315.63,-133.3 276.68,-117.05 246.55,-105.36"/>
<polygon fill="black" stroke="black" points="247.71,-102.06 237.12,-101.74 245.2,-108.59 247.71,-102.06"/>
</g>
<!-- try_filling -->
<g id="node8" class="node">
<title>try_filling</title>
<ellipse fill="none" stroke="black" cx="310" cy="-90" rx="46.29" ry="18"/>
<text text-anchor="middle" x="310" y="-86.3" font-family="Times,serif" font-size="14.00">try_filling</text>
</g>
<!-- nodes&#45;&gt;try_filling -->
<g id="edge8" class="edge">
<title>nodes&#45;&gt;try_filling</title>
<path fill="none" stroke="black" d="M337.36,-152.3C330.56,-140.29 323.99,-127.94 318.89,-117.5"/>
<polygon fill="black" stroke="black" points="321.92,-115.72 314.5,-108.15 315.58,-118.69 321.92,-115.72"/>
</g>
<!-- update_diagram_nodes -->
<g id="node9" class="node">
<title>update_diagram_nodes</title>
<polygon fill="none" stroke="black" points="517.5,-108 374.5,-108 374.5,-72 517.5,-72 517.5,-108"/>
<text text-anchor="middle" x="446" y="-86.3" font-family="Times,serif" font-size="14.00">update_diagram_nodes</text>
</g>
<!-- nodes&#45;&gt;update_diagram_nodes -->
<g id="edge9" class="edge">
<title>nodes&#45;&gt;update_diagram_nodes</title>
<path fill="none" stroke="black" d="M406.62,-150.34C414.33,-138.71 422.19,-126.87 428.84,-116.86"/>
<polygon fill="black" stroke="black" points="431.95,-118.5 434.56,-108.24 426.11,-114.63 431.95,-118.5"/>
</g>
<!-- validation_status -->
<g id="node12" class="node">
<title>validation_status</title>
<polygon fill="none" stroke="black" points="262,-36 154,-36 154,0 262,0 262,-36"/>
<text text-anchor="middle" x="208" y="-14.3" font-family="Times,serif" font-size="14.00">validation_status</text>
</g>
<!-- validate&#45;&gt;validation_status -->
<g id="edge14" class="edge">
<title>validate&#45;&gt;validation_status</title>
<path fill="none" stroke="black" d="M208,-71.7C208,-63.98 208,-54.71 208,-46.11"/>
<polygon fill="black" stroke="black" points="211.5,-46.1 208,-36.1 204.5,-46.1 211.5,-46.1"/>
</g>
<!-- try_filling&#45;&gt;nodes -->
<g id="edge15" class="edge">
<title>try_filling&#45;&gt;nodes</title>
<path fill="none" stroke="black" d="M324.02,-107.33C329.18,-115.02 335.15,-124.76 341.12,-135.06"/>
<polygon fill="black" stroke="black" points="338.11,-136.86 346.11,-143.81 344.19,-133.39 338.11,-136.86"/>
</g>
<!-- update_diagram_nodes&#45;&gt;graphviz_diagram -->
<g id="edge16" class="edge">
<title>update_diagram_nodes&#45;&gt;graphviz_diagram</title>
<path fill="none" stroke="black" d="M446.13,-108.06C446.1,-148.12 444.22,-251.13 427,-335 425.22,-343.66 422.43,-352.86 419.58,-361.13"/>
<polygon fill="black" stroke="black" points="416.25,-360.04 416.12,-370.64 422.83,-362.43 416.25,-360.04"/>
</g>
<!-- project_info -->
<g id="node10" class="node">
<title>project_info</title>
<polygon fill="none" stroke="black" points="3,-227.5 3,-248.5 93,-248.5 93,-227.5 3,-227.5"/>
<text text-anchor="start" x="13" y="-235.3" font-family="Times,serif" font-weight="bold" font-size="14.00">Project Info</text>
<polygon fill="none" stroke="black" points="3,-204.5 3,-225.5 93,-225.5 93,-204.5 3,-204.5"/>
<text text-anchor="start" x="33.5" y="-211.3" font-family="Times,serif" font-size="14.00">Alias</text>
<polygon fill="none" stroke="black" points="3,-181.5 3,-202.5 93,-202.5 93,-181.5 3,-181.5"/>
<text text-anchor="start" x="18" y="-188.3" font-family="Times,serif" font-size="14.00">Repo URL</text>
<polygon fill="none" stroke="black" points="3,-158.5 3,-179.5 93,-179.5 93,-158.5 3,-158.5"/>
<text text-anchor="start" x="6" y="-165.3" font-family="Times,serif" font-size="14.00">Default Branch</text>
<polygon fill="none" stroke="black" points="0,-155.5 0,-251.5 96,-251.5 96,-155.5 0,-155.5"/>
</g>
<!-- project_info&#45;&gt;validate -->
<g id="edge10" class="edge">
<title>project_info&#45;&gt;validate</title>
<path fill="none" stroke="black" d="M91.19,-155.34C95.69,-151.31 100.33,-147.46 105,-144 125.24,-129.03 150.31,-116.03 170.65,-106.65"/>
<polygon fill="black" stroke="black" points="172.24,-109.77 179.92,-102.47 169.37,-103.39 172.24,-109.77"/>
</g>
<!-- project_info&#45;&gt;try_filling -->
<g id="edge11" class="edge">
<title>project_info&#45;&gt;try_filling</title>
<path fill="none" stroke="black" d="M88.69,-155.5C93.86,-151.18 99.33,-147.22 105,-144 164.6,-110.11 188.88,-126.13 255,-108 258.53,-107.03 262.18,-105.99 265.84,-104.92"/>
<polygon fill="black" stroke="black" points="266.9,-108.26 275.48,-102.04 264.9,-101.55 266.9,-108.26"/>
</g>
<!-- runtime_info -->
<g id="node11" class="node">
<title>runtime_info</title>
<polygon fill="none" stroke="black" points="118,-215.5 118,-236.5 317,-236.5 317,-215.5 118,-215.5"/>
<text text-anchor="start" x="178" y="-223.3" font-family="Times,serif" font-weight="bold" font-size="14.00">Runtime Info</text>
<polygon fill="none" stroke="black" points="118,-192.5 118,-213.5 317,-213.5 317,-192.5 118,-192.5"/>
<text text-anchor="start" x="172" y="-199.3" font-family="Times,serif" font-size="14.00">Local Repo Path</text>
<polygon fill="none" stroke="black" points="118,-169.5 118,-190.5 317,-190.5 317,-169.5 118,-169.5"/>
<text text-anchor="start" x="121" y="-176.3" font-family="Times,serif" font-size="14.00">Pathspec Type (=editor&#45;dependent)</text>
<polygon fill="none" stroke="black" points="114.5,-167 114.5,-240 319.5,-240 319.5,-167 114.5,-167"/>
</g>
<!-- runtime_info&#45;&gt;validate -->
<g id="edge12" class="edge">
<title>runtime_info&#45;&gt;validate</title>
<path fill="none" stroke="black" d="M214.13,-166.91C212.86,-151.27 211.4,-133.18 210.23,-118.58"/>
<polygon fill="black" stroke="black" points="213.68,-117.89 209.39,-108.2 206.7,-118.45 213.68,-117.89"/>
</g>
<!-- runtime_info&#45;&gt;try_filling -->
<g id="edge13" class="edge">
<title>runtime_info&#45;&gt;try_filling</title>
<path fill="none" stroke="black" d="M246.68,-166.91C260.77,-150.03 277.23,-130.29 289.84,-115.18"/>
<polygon fill="black" stroke="black" points="292.69,-117.22 296.4,-107.3 287.31,-112.74 292.69,-117.22"/>
</g>
</g>
</svg>
