<?xml version="1.0" encoding="UTF-8" standalone="no"?>
<!DOCTYPE svg PUBLIC "-//W3C//DTD SVG 1.1//EN"
 "http://www.w3.org/Graphics/SVG/1.1/DTD/svg11.dtd">
<!-- Generated by graphviz version 5.0.1 (20220820.1526)
 -->
<!-- Title: G Pages: 1 -->
<svg width="73pt" height="188pt"
 viewBox="0.00 0.00 72.99 188.00" xmlns="http://www.w3.org/2000/svg" xmlns:xlink="http://www.w3.org/1999/xlink">
<g id="graph0" class="graph" transform="scale(1 1) rotate(0) translate(4 184)">
<title>G</title>
<polygon fill="white" stroke="none" points="-4,4 -4,-184 68.99,-184 68.99,4 -4,4"/>
<!-- node1 -->
<g id="node1" class="node">
<title>node1</title>
<g id="a_node1"><a xlink:href="https://github.com/guy4261/polkadot/blob/main/examples/good_bad_ugly/good_bad_ugly.txt#L1" xlink:title="node1">
<polygon fill="none" stroke="black" points="59.5,-180 5.5,-180 5.5,-144 59.5,-144 59.5,-180"/>
<text text-anchor="middle" x="32.5" y="-158.3" font-family="Times,serif" font-size="14.00">node1</text>
</a>
</g>
</g>
<!-- node2 -->
<g id="node2" class="node">
<title>node2</title>
<g id="a_node2"><a xlink:href="https://github.com/guy4261/polkadot/blob/main/examples/good_bad_ugly/good_bad_ugly.txt#L3" xlink:title="node2">
<ellipse fill="none" stroke="black" cx="32.5" cy="-90" rx="32.49" ry="18"/>
<text text-anchor="middle" x="32.5" y="-86.3" font-family="Times,serif" font-size="14.00">node2</text>
</a>
</g>
</g>
<!-- node1&#45;&gt;node2 -->
<g id="edge1" class="edge">
<title>node1&#45;&gt;node2</title>
<path fill="none" stroke="black" d="M32.5,-143.7C32.5,-135.98 32.5,-126.71 32.5,-118.11"/>
<polygon fill="black" stroke="black" points="36,-118.1 32.5,-108.1 29,-118.1 36,-118.1"/>
</g>
<!-- node3 -->
<g id="node3" class="node">
<title>node3</title>
<g id="a_node3"><a xlink:href="https://github.com/guy4261/polkadot/blob/main/examples/good_bad_ugly/good_bad_ugly.txt#L6" xlink:title="node3">
<polygon fill="none" stroke="black" points="59.5,-36 5.5,-36 5.5,0 59.5,0 59.5,-36"/>
<text text-anchor="middle" x="32.5" y="-14.3" font-family="Times,serif" font-size="14.00">node3</text>
</a>
</g>
</g>
<!-- node2&#45;&gt;node3 -->
<g id="edge2" class="edge">
<title>node2&#45;&gt;node3</title>
<path fill="none" stroke="black" d="M32.5,-71.7C32.5,-63.98 32.5,-54.71 32.5,-46.11"/>
<polygon fill="black" stroke="black" points="36,-46.1 32.5,-36.1 29,-46.1 36,-46.1"/>
</g>
</g>
</svg>
